<svg xmlns="http://www.w3.org/2000/svg" xmlns:xlink="http://www.w3.org/1999/xlink" viewBox="0 0 280 50" preserveAspectRatio="xMidYMid" width="280" height="50" style="display: block; background: rgba(255, 255, 255, 0);"><style type="text/css">
  .ld-text text {
    text-anchor: middle;
    dominant-baseline: middle;
    font-size: 48px;
    opacity: 0;
    user-select: none;
    pointer-events: none;
  }
</style>
<g style="transform-origin:140px 25px;transform:scale(1)" class="ld-text">
<g transform="translate(140,25)">
  <g transform="scale(0.6000) translate(0,0)"><g class="path" style="opacity: 1; animation: 20s linear infinite forwards animate-vk64adafao; transform-box: view-box; transform-origin: -186.68px 0px;"><path d="M61.92 30.32L61.92 42.24L57.92 42.24L57.92 58.24Q54.40 60.24 47.64 61.80Q40.88 63.36 33.04 63.36L33.04 63.36Q18.08 63.36 9.60 55.48Q1.12 47.60 1.12 31.12L1.12 31.12Q1.12 14.24 9.56 6.56Q18-1.12 33.68-1.12L33.68-1.12Q41.28-1.12 47.92 0.48Q54.56 2.08 57.92 4.08L57.92 4.08L57.92 23.20L37.92 23.20L37.92 19.44Q37.92 16.08 36.52 14.60Q35.12 13.12 32.08 13.12L32.08 13.12Q29.04 13.12 27.64 14.60Q26.24 16.08 26.24 19.44L26.24 19.44L26.24 42.80Q26.24 46.16 27.64 47.64Q29.04 49.12 32.08 49.12L32.08 49.12Q35.12 49.12 36.52 47.64Q37.92 46.16 37.92 42.80L37.92 42.80L37.92 42.24L33.60 42.24L33.60 30.32L61.92 30.32" transform="translate(-218.200,-31.120)" style="fill: none; stroke-width: 3; stroke-dashoffset: 6; stroke: rgb(0, 255, 148); stroke-linecap: round; stroke-linejoin: round; stroke-miterlimit: 0; fill-opacity: 0; stroke-dasharray: 0, 0, 0, 2429.395355; animation: 20s linear infinite animate-stroke-0;"></path></g><g class="path" style="opacity: 1; animation: 20s linear infinite forwards animate-vk64adafao; transform-box: view-box; transform-origin: -123.4px 0px;"><path d="M109.36 0L122.88 49.12L126.08 49.12L126.08 62.24L94.72 62.24L94.72 49.12L99.52 49.12L98.24 42.72L87.36 42.72L86.08 49.12L90.88 49.12L90.88 62.24L63.52 62.24L63.52 49.12L66.72 49.12L80.24 0L109.36 0 zM92.40 18.32L89.12 34.24L96.48 34.24L93.20 18.32L92.40 18.32" transform="translate(-218.200,-31.120)" style="fill: none; stroke-width: 3; stroke-dashoffset: 6; stroke: rgb(0, 255, 148); stroke-linecap: round; stroke-linejoin: round; stroke-miterlimit: 0; fill-opacity: 0; stroke-dasharray: 0, 0, 0, 2429.395355; animation: 20s linear 1.392734s infinite animate-stroke-1;"></path></g><g class="path" style="opacity: 1; animation: 20s linear infinite forwards animate-vk64adafao; transform-box: view-box; transform-origin: -45.44px 0px;"><path d="M216.88 0L216.88 13.12L212.88 13.12L212.88 49.12L216.88 49.12L216.88 62.24L186.64 62.24L186.64 49.12L190.48 49.12L190.48 21.12L176.88 62.24L165.04 62.24L151.04 21.52L151.04 49.12L154.88 49.12L154.88 62.24L128.64 62.24L128.64 49.12L132.64 49.12L132.64 13.12L128.64 13.12L128.64 0L165.28 0L173.60 24.96L181.60 0L216.88 0" transform="translate(-218.200,-31.120)" style="fill: none; stroke-width: 3; stroke-dashoffset: 6; stroke: rgb(0, 255, 148); stroke-linecap: round; stroke-linejoin: round; stroke-miterlimit: 0; fill-opacity: 0; stroke-dasharray: 0, 0, 0, 2429.395355; animation: 20s linear 2.721524s infinite animate-stroke-2;"></path></g><g class="path" style="opacity: 1; animation: 20s linear infinite forwards animate-vk64adafao; transform-box: view-box; transform-origin: 28.88px 0px;"><path d="M274.08 62.24L220.08 62.24L220.08 49.12L224.08 49.12L224.08 13.12L220.08 13.12L220.08 0L274.08 0L274.08 24.16L256.16 24.16L256.16 13.12L246.48 13.12L246.48 25.76L253.52 25.76L253.52 34.88L246.48 34.88L246.48 49.12L256.16 49.12L256.16 36.48L274.08 36.48L274.08 62.24" transform="translate(-218.200,-31.120)" style="fill: none; stroke-width: 3; stroke-dashoffset: 6; stroke: rgb(0, 255, 148); stroke-linecap: round; stroke-linejoin: round; stroke-miterlimit: 0; fill-opacity: 0; stroke-dasharray: 0, 0, 0, 2429.395355; animation: 20s linear 4.817235s infinite animate-stroke-3;"></path></g><g class="path" style="opacity: 1; animation: 20s linear infinite forwards animate-vk64adafao; transform-box: view-box; transform-origin: 88.76px 0px;"><path d="M310.72 13.12L310.72 0L337.44 0L337.44 13.12L334.24 13.12L319.92 62.24L294 62.24L279.68 13.12L276.48 13.12L276.48 0L307.20 0L307.20 13.12L303.04 13.12L308.56 39.92L309.36 39.92L314.88 13.12L310.72 13.12" transform="translate(-218.200,-31.120)" style="fill: none; stroke-width: 3; stroke-dashoffset: 6; stroke: rgb(0, 255, 148); stroke-linecap: round; stroke-linejoin: round; stroke-miterlimit: 0; fill-opacity: 0; stroke-dasharray: 0, 0, 0, 2429.395355; animation: 20s linear 6.28723s infinite animate-stroke-4;"></path></g><g class="path" style="opacity: 1; animation: 20s linear infinite forwards animate-vk64adafao; transform-box: view-box; transform-origin: 137px 0px;"><path d="M370.40 62.24L340 62.24L340 49.12L344 49.12L344 13.12L340 13.12L340 0L370.40 0L370.40 13.12L366.40 13.12L366.40 49.12L370.40 49.12L370.40 62.24" transform="translate(-218.200,-31.120)" style="fill: none; stroke-width: 3; stroke-dashoffset: 6; stroke: rgb(0, 255, 148); stroke-linecap: round; stroke-linejoin: round; stroke-miterlimit: 0; fill-opacity: 0; stroke-dasharray: 0, 0, 0, 2429.395355; animation: 20s linear 7.556742s infinite animate-stroke-5;"></path></g><g class="path" style="opacity: 1; animation: 20s linear infinite forwards animate-vk64adafao; transform-box: view-box; transform-origin: 187.36px 0px;"><path d="M419.76 24.16L433.52 49.12L437.52 49.12L437.52 62.24L415.68 62.24L403.68 37.44L400 40.48L400 49.12L403.84 49.12L403.84 62.24L373.60 62.24L373.60 49.12L377.60 49.12L377.60 13.12L373.60 13.12L373.60 0L403.84 0L403.84 13.12L400 13.12L400 23.68L412.40 13.12L407.36 13.12L407.36 0L437.12 0L437.12 13.12L433.12 13.12L419.76 24.16" transform="translate(-218.200,-31.120)" style="fill: none; stroke-width: 3; stroke-dashoffset: 6; stroke: rgb(0, 255, 148); stroke-linecap: round; stroke-linejoin: round; stroke-miterlimit: 0; fill-opacity: 0; stroke-dasharray: 0, 0, 0, 2429.395355; animation: 20s linear 8.385261s infinite animate-stroke-6;"></path></g></g><text dy="0.35em" fill="#00ff94" font-family="Alfa Slab One" font-size="48">GAMEVIK</text>
</g>
</g><style>@keyframes animate-stroke-0 {
    0% { stroke-dasharray: 0 0 0 2429.3953552246094; fill-opacity: 0 }
    1% { stroke-dasharray: 0 0 0 2429.3953552246094; fill-opacity: 1 }
   50% { stroke-dasharray: 0 0 2429.3953552246094 0; fill-opacity: 1}
   99% { stroke-dasharray: 0 2429.3953552246094 2429.3953552246094 0; fill-opacity: 1 }
  100% { stroke-dasharray: 0 2429.3953552246094 2429.3953552246094 0; fill-opacity: 0 }
}
@keyframes animate-stroke-1 {
    0% { stroke-dasharray: 0 0 0 2429.3953552246094; fill-opacity: 0 }
    1% { stroke-dasharray: 0 0 0 2429.3953552246094; fill-opacity: 1 }
   50% { stroke-dasharray: 0 0 2429.3953552246094 0; fill-opacity: 1}
   99% { stroke-dasharray: 0 2429.3953552246094 2429.3953552246094 0; fill-opacity: 1 }
  100% { stroke-dasharray: 0 2429.3953552246094 2429.3953552246094 0; fill-opacity: 0 }
}
@keyframes animate-stroke-2 {
    0% { stroke-dasharray: 0 0 0 2429.3953552246094; fill-opacity: 0 }
    1% { stroke-dasharray: 0 0 0 2429.3953552246094; fill-opacity: 1 }
   50% { stroke-dasharray: 0 0 2429.3953552246094 0; fill-opacity: 1}
   99% { stroke-dasharray: 0 2429.3953552246094 2429.3953552246094 0; fill-opacity: 1 }
  100% { stroke-dasharray: 0 2429.3953552246094 2429.3953552246094 0; fill-opacity: 0 }
}
@keyframes animate-stroke-3 {
    0% { stroke-dasharray: 0 0 0 2429.3953552246094; fill-opacity: 0 }
    1% { stroke-dasharray: 0 0 0 2429.3953552246094; fill-opacity: 1 }
   50% { stroke-dasharray: 0 0 2429.3953552246094 0; fill-opacity: 1}
   99% { stroke-dasharray: 0 2429.3953552246094 2429.3953552246094 0; fill-opacity: 1 }
  100% { stroke-dasharray: 0 2429.3953552246094 2429.3953552246094 0; fill-opacity: 0 }
}
@keyframes animate-stroke-4 {
    0% { stroke-dasharray: 0 0 0 2429.3953552246094; fill-opacity: 0 }
    1% { stroke-dasharray: 0 0 0 2429.3953552246094; fill-opacity: 1 }
   50% { stroke-dasharray: 0 0 2429.3953552246094 0; fill-opacity: 1}
   99% { stroke-dasharray: 0 2429.3953552246094 2429.3953552246094 0; fill-opacity: 1 }
  100% { stroke-dasharray: 0 2429.3953552246094 2429.3953552246094 0; fill-opacity: 0 }
}
@keyframes animate-stroke-5 {
    0% { stroke-dasharray: 0 0 0 2429.3953552246094; fill-opacity: 0 }
    1% { stroke-dasharray: 0 0 0 2429.3953552246094; fill-opacity: 1 }
   50% { stroke-dasharray: 0 0 2429.3953552246094 0; fill-opacity: 1}
   99% { stroke-dasharray: 0 2429.3953552246094 2429.3953552246094 0; fill-opacity: 1 }
  100% { stroke-dasharray: 0 2429.3953552246094 2429.3953552246094 0; fill-opacity: 0 }
}
@keyframes animate-stroke-6 {
    0% { stroke-dasharray: 0 0 0 2429.3953552246094; fill-opacity: 0 }
    1% { stroke-dasharray: 0 0 0 2429.3953552246094; fill-opacity: 1 }
   50% { stroke-dasharray: 0 0 2429.3953552246094 0; fill-opacity: 1}
   99% { stroke-dasharray: 0 2429.3953552246094 2429.3953552246094 0; fill-opacity: 1 }
  100% { stroke-dasharray: 0 2429.3953552246094 2429.3953552246094 0; fill-opacity: 0 }
}</style><style type="text/css">@keyframes animate-vk64adafao { 0.00% {animation-timing-function: cubic-bezier(0.33,0.00,0.67,0.00);transform: translate(0.00px,0.00px) rotate(0.00deg) scale(1.00, 1.00) skew(0deg, 0.00deg) ;opacity: 1.00;}34.00% {animation-timing-function: cubic-bezier(0.43,0.26,0.68,0.61);transform: translate(0.00px,0.00px) rotate(0.00deg) ;opacity: 1.00;}40.00% {transform: translate(0.00px,0.00px) rotate(0.00deg) ;opacity: 0.93;}46.00% {transform: translate(0.00px,0.00px) rotate(0.00deg) ;opacity: 0.84;}48.00% {transform: translate(0.00px,0.00px) rotate(0.00deg) ;opacity: 0.81;}50.00% {transform: translate(0.00px,0.00px) rotate(0.00deg) ;opacity: 0.79;}52.00% {transform: translate(0.00px,0.00px) rotate(0.00deg) ;opacity: 0.76;}54.00% {transform: translate(0.00px,0.00px) rotate(0.00deg) ;opacity: 0.73;}58.00% {transform: translate(0.00px,0.00px) rotate(0.00deg) ;opacity: 0.67;}60.00% {transform: translate(0.00px,0.00px) rotate(0.00deg) ;opacity: 0.64;}62.00% {transform: translate(0.00px,0.00px) rotate(0.00deg) ;opacity: 0.61;}64.00% {transform: translate(0.00px,0.00px) rotate(0.00deg) ;opacity: 0.59;}66.00% {transform: translate(0.00px,0.00px) rotate(0.00deg) ;opacity: 0.56;}68.00% {transform: translate(0.00px,0.00px) rotate(0.00deg) ;opacity: 0.53;}74.00% {transform: translate(0.00px,0.00px) rotate(0.00deg) ;opacity: 0.44;}76.00% {transform: translate(0.00px,0.00px) rotate(0.00deg) ;opacity: 0.41;}78.00% {transform: translate(0.00px,0.00px) rotate(0.00deg) ;opacity: 0.39;}80.00% {transform: translate(0.00px,0.00px) rotate(0.00deg) ;opacity: 0.36;}82.00% {transform: translate(0.00px,0.00px) rotate(0.00deg) ;opacity: 0.33;}88.00% {transform: translate(0.00px,0.00px) rotate(0.00deg) ;opacity: 0.24;}90.00% {transform: translate(0.00px,0.00px) rotate(0.00deg) ;opacity: 0.21;}92.00% {transform: translate(0.00px,0.00px) rotate(0.00deg) ;opacity: 0.19;}94.00% {transform: translate(0.00px,0.00px) rotate(0.00deg) ;opacity: 0.16;}96.00% {transform: translate(0.00px,0.00px) rotate(0.00deg) ;opacity: 0.13;}100.00% {transform: translate(0.00px,0.00px) rotate(0.00deg) ;opacity: 0.07;} }</style><!-- [ldio] generated by https://loading.io --></svg>
